<?xml version="1.0" encoding="UTF-8"?>
<svg width="240" height="240" viewBox="0 0 240 240" xmlns="http://www.w3.org/2000/svg">
  <defs>
    <linearGradient id="bg" x1="0" y1="0" x2="1" y2="1">
      <stop offset="0" stop-color="#6d28d9"/>
      <stop offset="1" stop-color="#7c3aed"/>
    </linearGradient>
  </defs>
  <rect x="0" y="0" width="240" height="240" rx="32" fill="url(#bg)"/>
  <!-- Owl (white) -->
  <g transform="translate(40,40)">
    <path d="M80 10c43 0 78 32 78 71v58c0 17-14 31-31 31h-94c-17 0-31-14-31-31V81C2 42 37 10 80 10z" fill="#fff" opacity="0.12"/>
    <path d="M80 22c38 0 68 28 68 62v55c0 13-11 24-24 24H36c-13 0-24-11-24-24V84c0-34 30-62 68-62z" fill="none" stroke="#ffffff" stroke-width="4"/>
    <circle cx="58" cy="82" r="18" fill="#ffffff"/>
    <circle cx="102" cy="82" r="18" fill="#ffffff"/>
    <circle cx="58" cy="82" r="7" fill="#1f2937"/>
    <circle cx="102" cy="82" r="7" fill="#1f2937"/>
    <path d="M80 100c11 0 19 5 19 5-5 10-14 16-19 16s-14-6-19-16c0 0 8-5 19-5z" fill="#f59e0b"/>
  </g>
</svg>
