<svg width="32" height="32" viewBox="0 0 100 100" xmlns="http://www.w3.org/2000/svg">
  <defs>
    <linearGradient id="owlGradient" x1="0%" y1="0%" x2="100%" y2="100%">
      <stop offset="0%" style="stop-color:#3B82F6;stop-opacity:1" />
      <stop offset="100%" style="stop-color:#8B5CF6;stop-opacity:1" />
    </linearGradient>
    <filter id="shadow" x="-20%" y="-20%" width="140%" height="140%">
      <feDropShadow dx="2" dy="2" stdDeviation="3" flood-color="#000000" flood-opacity="0.3"/>
    </filter>
  </defs>
  
  <!-- Owl Body -->
  <ellipse cx="50" cy="65" rx="28" ry="32" fill="url(#owlGradient)" filter="url(#shadow)"/>
  
  <!-- Owl Head -->
  <circle cx="50" cy="38" r="22" fill="url(#owlGradient)" filter="url(#shadow)"/>
  
  <!-- Eyes -->
  <circle cx="42" cy="35" r="7" fill="white"/>
  <circle cx="58" cy="35" r="7" fill="white"/>
  <circle cx="42" cy="35" r="4" fill="#1F2937"/>
  <circle cx="58" cy="35" r="4" fill="#1F2937"/>
  <circle cx="43" cy="33" r="1.5" fill="white"/>
  <circle cx="59" cy="33" r="1.5" fill="white"/>
  
  <!-- Beak -->
  <polygon points="50,42 46,47 54,47" fill="#F59E0B"/>
  
  <!-- Ear Tufts -->
  <polygon points="32,22 35,16 40,25" fill="url(#owlGradient)"/>
  <polygon points="68,22 65,16 60,25" fill="url(#owlGradient)"/>
  
  <!-- PhD Graduation Cap -->
  <rect x="32" y="20" width="36" height="5" fill="#1F2937" rx="2"/>
  <polygon points="50,20 42,12 58,12" fill="#1F2937"/>
  
  <!-- Tassel -->
  <line x1="58" y1="12" x2="65" y2="8" stroke="#F59E0B" stroke-width="2"/>
  <circle cx="65" cy="8" r="2.5" fill="#F59E0B"/>
  
  <!-- Intelligence Sparkles -->
  <circle cx="25" cy="30" r="1.5" fill="#F59E0B" opacity="0.8"/>
  <circle cx="75" cy="35" r="1" fill="#F59E0B" opacity="0.6"/>
  <circle cx="30" cy="50" r="1" fill="#3B82F6" opacity="0.7"/>
  <circle cx="70" cy="55" r="1.5" fill="#8B5CF6" opacity="0.8"/>
</svg>